<svg width="241.27431640625px" height="58.407997131347656px" xmlns="http://www.w3.org/2000/svg" viewBox="129.362841796875 45.79600143432617 241.27431640625 58.407997131347656" style="background: none;" preserveAspectRatio="xMidYMid"><defs><linearGradient id="editing-shadow-gradient1" x1="0" x2="0" y1="0" y2="1"><stop offset="0" stop-color="#000000" stop-opacity="0"></stop><stop offset="0.2" stop-color="#000000" stop-opacity="0"></stop><stop offset="1" stop-color="#000000" stop-opacity="1"></stop></linearGradient><linearGradient id="editing-shadow-gradient2" x1="-0.1293203910498375" x2="1.1293203910498375" y1="-0.2771459614569708" y2="1.277145961456971"><stop offset="0" stop-color="#fb1f1f"></stop><stop offset="1" stop-color="#1923e8"></stop></linearGradient><filter id="editing-shadow" x="-100%" y="-100%" width="300%" height="300%"><feGaussianBlur stdDeviation="0"></feGaussianBlur><feComposite operator="in" in2="SourceGraphic"></feComposite><feGaussianBlur stdDeviation="0"></feGaussianBlur></filter></defs><g transform="translate(250,75)"><g transform="translate(-10, -1.2)"><g transform="skewX(45)"><g filter="url(#editing-shadow)"><g transform="translate(-67.55856227874756, 9.84000015258789)"><path d="M1.29-7.32L1.29-7.32L1.29-7.32Q1.29-9.09 2.25-10.52L2.25-10.52L2.25-10.52Q3.21-11.96 4.98-12.98L4.98-12.98L4.98-12.98Q6.75-14.00 9.25-14.56L9.25-14.56L9.25-14.56Q11.76-15.12 14.85-15.12L14.85-15.12L14.85-15.12Q16.50-15.12 17.97-14.98L17.97-14.98L17.97-14.98Q19.44-14.85 20.71-14.69L20.71-14.69L20.71-14.69Q21.98-14.53 23.04-14.40L23.04-14.40L23.04-14.40Q24.10-14.26 24.95-14.26L24.95-14.26L24.95-14.26Q25.16-14.26 25.41-14.33L25.41-14.33L25.41-14.33Q25.66-14.40 25.91-14.52L25.91-14.52L25.91-14.52Q26.16-14.63 26.37-14.80L26.37-14.80L26.37-14.80Q26.58-14.97 26.71-15.18L26.71-15.18L29.18-15.18L29.18-15.18Q29.51-14.60 29.79-13.79L29.79-13.79L29.79-13.79Q30.08-12.97 30.27-12.10L30.27-12.10L30.27-12.10Q30.47-11.22 30.58-10.36L30.58-10.36L30.58-10.36Q30.69-9.50 30.69-8.83L30.69-8.83L29.01-8.83L29.01-8.83Q28.79-9.60 28.34-10.24L28.34-10.24L28.34-10.24Q27.89-10.87 27.26-11.37L27.26-11.37L27.26-11.37Q26.63-11.86 25.88-12.23L25.88-12.23L25.88-12.23Q25.12-12.60 24.32-12.84L24.32-12.84L24.32-12.84Q23.52-13.07 22.71-13.19L22.71-13.19L22.71-13.19Q21.90-13.31 21.17-13.31L21.17-13.31L21.17-13.31Q19.95-13.31 18.83-12.99L18.83-12.99L18.83-12.99Q17.71-12.68 16.86-11.95L16.86-11.95L16.86-11.95Q16.00-11.22 15.49-10.02L15.49-10.02L15.49-10.02Q14.98-8.83 14.98-7.06L14.98-7.06L14.98-7.06Q14.98-5.57 15.54-4.46L15.54-4.46L15.54-4.46Q16.09-3.35 17.02-2.61L17.02-2.61L17.02-2.61Q17.95-1.88 19.15-1.51L19.15-1.51L19.15-1.51Q20.35-1.15 21.65-1.15L21.65-1.15L21.65-1.15Q22.45-1.15 23.29-1.28L23.29-1.28L23.29-1.28Q24.13-1.42 24.94-1.68L24.94-1.68L24.94-1.68Q25.74-1.95 26.46-2.36L26.46-2.36L26.46-2.36Q27.19-2.77 27.75-3.34L27.75-3.34L27.75-3.34Q28.31-3.90 28.68-4.61L28.68-4.61L28.68-4.61Q29.04-5.32 29.13-6.19L29.13-6.19L30.81-6.19L30.81-6.19Q30.81-4.62 29.99-3.35L29.99-3.35L29.99-3.35Q29.17-2.09 27.54-1.20L27.54-1.20L27.54-1.20Q25.92-0.31 23.51 0.16L23.51 0.16L23.51 0.16Q21.10 0.64 17.92 0.64L17.92 0.64L17.92 0.64Q15.44 0.64 13.25 0.48L13.25 0.48L13.25 0.48Q11.05 0.33 9.20-0.03L9.20-0.03L9.20-0.03Q7.36-0.39 5.89-0.99L5.89-0.99L5.89-0.99Q4.42-1.59 3.40-2.48L3.40-2.48L3.40-2.48Q2.38-3.36 1.84-4.56L1.84-4.56L1.84-4.56Q1.29-5.76 1.29-7.32ZM32.94 0L32.94-1.06L32.94-1.06Q33.95-1.09 34.70-1.21L34.70-1.21L34.70-1.21Q35.45-1.33 35.99-1.60L35.99-1.60L35.99-1.60Q36.53-1.88 36.88-2.34L36.88-2.34L36.88-2.34Q37.23-2.81 37.44-3.56L37.44-3.56L37.44-3.56Q37.64-4.31 37.72-5.38L37.72-5.38L37.72-5.38Q37.80-6.45 37.80-7.91L37.80-7.91L37.80-7.91Q37.80-9.33 37.69-10.39L37.69-10.39L37.69-10.39Q37.58-11.44 37.32-12.20L37.32-12.20L37.32-12.20Q37.07-12.95 36.67-13.43L36.67-13.43L36.67-13.43Q36.27-13.91 35.70-14.19L35.70-14.19L35.70-14.19Q35.12-14.46 34.35-14.57L34.35-14.57L34.35-14.57Q33.58-14.68 32.60-14.68L32.60-14.68L32.60-15.72L47.67-16.73L47.67-5.28L47.67-5.28Q47.67-4.18 47.88-3.40L47.88-3.40L47.88-3.40Q48.09-2.63 48.61-2.13L48.61-2.13L48.61-2.13Q49.12-1.63 50.00-1.37L50.00-1.37L50.00-1.37Q50.87-1.11 52.22-1.06L52.22-1.06L52.22 0L32.94 0ZM57.63-16.30L57.63-16.30L57.63-16.30Q57.63-16.87 58.09-17.37L58.09-17.37L58.09-17.37Q58.54-17.87 59.32-18.24L59.32-18.24L59.32-18.24Q60.11-18.61 61.16-18.82L61.16-18.82L61.16-18.82Q62.21-19.04 63.38-19.04L63.38-19.04L63.38-19.04Q64.58-19.04 65.63-18.82L65.63-18.82L65.63-18.82Q66.68-18.61 67.46-18.24L67.46-18.24L67.46-18.24Q68.25-17.87 68.70-17.37L68.70-17.37L68.70-17.37Q69.15-16.87 69.15-16.30L69.15-16.30L69.15-16.30Q69.15-15.73 68.70-15.24L68.70-15.24L68.70-15.24Q68.25-14.75 67.46-14.38L67.46-14.38L67.46-14.38Q66.68-14.00 65.63-13.79L65.63-13.79L65.63-13.79Q64.58-13.58 63.38-13.58L63.38-13.58L63.38-13.58Q62.21-13.58 61.16-13.79L61.16-13.79L61.16-13.79Q60.11-14.00 59.32-14.38L59.32-14.38L59.32-14.38Q58.54-14.75 58.09-15.24L58.09-15.24L58.09-15.24Q57.63-15.73 57.63-16.30ZM53.23 0L53.23-1.06L53.23-1.06Q54.78-1.11 55.84-1.45L55.84-1.45L55.84-1.45Q56.90-1.79 57.56-2.38L57.56-2.38L57.56-2.38Q58.22-2.98 58.51-3.83L58.51-3.83L58.51-3.83Q58.80-4.68 58.80-5.78L58.80-5.78L58.80-5.78Q58.80-6.91 58.51-7.71L58.51-7.71L58.51-7.71Q58.22-8.51 57.59-9.02L57.59-9.02L57.59-9.02Q56.96-9.53 55.98-9.77L55.98-9.77L55.98-9.77Q55.00-10.01 53.60-10.01L53.60-10.01L53.60-11.06L68.67-12.07L68.67-5.78L68.67-5.78Q68.67-4.68 68.87-3.83L68.87-3.83L68.87-3.83Q69.06-2.98 69.59-2.38L69.59-2.38L69.59-2.38Q70.12-1.79 71.07-1.45L71.07-1.45L71.07-1.45Q72.02-1.11 73.54-1.06L73.54-1.06L73.54 0L53.23 0ZM75.09-5.77L75.09-5.77L75.09-5.77Q75.09-6.95 75.64-7.89L75.64-7.89L75.64-7.89Q76.20-8.83 77.19-9.55L77.19-9.55L77.19-9.55Q78.19-10.28 79.56-10.79L79.56-10.79L79.56-10.79Q80.93-11.30 82.57-11.63L82.57-11.63L82.57-11.63Q84.21-11.96 86.05-12.11L86.05-12.11L86.05-12.11Q87.90-12.26 89.83-12.26L89.83-12.26L89.83-12.26Q91.16-12.26 92.44-12.16L92.44-12.16L92.44-12.16Q93.73-12.06 94.88-11.86L94.88-11.86L94.88-11.86Q96.02-11.67 96.99-11.38L96.99-11.38L96.99-11.38Q97.96-11.08 98.67-10.71L98.67-10.71L98.67-10.71Q99.38-10.34 99.78-9.89L99.78-9.89L99.78-9.89Q100.18-9.43 100.18-8.91L100.18-8.91L100.18-8.91Q100.18-8.36 99.84-7.84L99.84-7.84L99.84-7.84Q99.50-7.33 98.86-6.93L98.86-6.93L98.86-6.93Q98.22-6.54 97.28-6.29L97.28-6.29L97.28-6.29Q96.35-6.05 95.14-6.05L95.14-6.05L95.14-6.05Q94.01-6.05 93.02-6.23L93.02-6.23L93.02-6.23Q92.02-6.41 91.29-6.73L91.29-6.73L91.29-6.73Q90.56-7.04 90.14-7.47L90.14-7.47L90.14-7.47Q89.72-7.91 89.72-8.42L89.72-8.42L89.72-8.42Q89.72-8.86 90.01-9.28L90.01-9.28L90.01-9.28Q90.29-9.70 90.86-10.03L90.86-10.03L90.86-10.03Q91.43-10.37 92.27-10.57L92.27-10.57L92.27-10.57Q93.11-10.77 94.23-10.77L94.23-10.77L94.23-10.77Q93.59-10.95 92.90-11.03L92.90-11.03L92.90-11.03Q92.21-11.11 91.51-11.11L91.51-11.11L91.51-11.11Q90.48-11.11 89.52-10.88L89.52-10.88L89.52-10.88Q88.56-10.65 87.82-10.10L87.82-10.10L87.82-10.10Q87.07-9.56 86.62-8.65L86.62-8.65L86.62-8.65Q86.17-7.75 86.17-6.40L86.17-6.40L86.17-6.40Q86.17-5.53 86.42-4.81L86.42-4.81L86.42-4.81Q86.68-4.10 87.13-3.54L87.13-3.54L87.13-3.54Q87.58-2.98 88.19-2.56L88.19-2.56L88.19-2.56Q88.80-2.15 89.51-1.88L89.51-1.88L89.51-1.88Q90.23-1.61 91.02-1.47L91.02-1.47L91.02-1.47Q91.81-1.34 92.61-1.34L92.61-1.34L92.61-1.34Q93.90-1.34 95.10-1.56L95.10-1.56L95.10-1.56Q96.30-1.79 97.22-2.17L97.22-2.17L97.22-2.17Q98.14-2.56 98.69-3.07L98.69-3.07L98.69-3.07Q99.24-3.58 99.24-4.17L99.24-4.17L100.63-4.17L100.63-4.17Q100.63-3.38 100.23-2.73L100.23-2.73L100.23-2.73Q99.83-2.08 99.11-1.56L99.11-1.56L99.11-1.56Q98.39-1.04 97.40-0.66L97.40-0.66L97.40-0.66Q96.40-0.27 95.22-0.01L95.22-0.01L95.22-0.01Q94.03 0.25 92.69 0.38L92.69 0.38L92.69 0.38Q91.35 0.51 89.93 0.51L89.93 0.51L89.93 0.51Q87.90 0.51 86.01 0.38L86.01 0.38L86.01 0.38Q84.13 0.26 82.48-0.03L82.48-0.03L82.48-0.03Q80.83-0.31 79.47-0.79L79.47-0.79L79.47-0.79Q78.11-1.26 77.14-1.95L77.14-1.95L77.14-1.95Q76.17-2.65 75.63-3.59L75.63-3.59L75.63-3.59Q75.09-4.54 75.09-5.77ZM102.47 0L102.47-1.06L102.47-1.06Q103.48-1.09 104.25-1.22L104.25-1.22L104.25-1.22Q105.03-1.36 105.61-1.65L105.61-1.65L105.61-1.65Q106.18-1.94 106.58-2.43L106.58-2.43L106.58-2.43Q106.97-2.91 107.21-3.66L107.21-3.66L107.21-3.66Q107.45-4.40 107.56-5.45L107.56-5.45L107.56-5.45Q107.67-6.50 107.67-7.91L107.67-7.91L107.67-7.91Q107.67-10.04 107.37-11.37L107.37-11.37L107.37-11.37Q107.08-12.69 106.45-13.43L106.45-13.43L106.45-13.43Q105.82-14.16 104.84-14.42L104.84-14.42L104.84-14.42Q103.86-14.68 102.47-14.68L102.47-14.68L102.47-15.72L117.54-16.73L117.54-6.50L117.54-6.50Q118.36-7.08 119.11-7.70L119.11-7.70L119.11-7.70Q119.86-8.32 120.44-8.86L120.44-8.86L120.44-8.86Q121.01-9.40 121.35-9.80L121.35-9.80L121.35-9.80Q121.69-10.20 121.69-10.33L121.69-10.33L121.69-10.33Q121.69-10.56 121.21-10.62L121.21-10.62L121.21-10.62Q120.73-10.69 119.90-10.69L119.90-10.69L119.90-11.75L132.38-11.75L132.38-10.69L132.38-10.69Q131.05-10.69 129.45-10.38L129.45-10.38L129.45-10.38Q127.86-10.06 126.07-9.43L126.07-9.43L126.07-9.43Q124.28-8.80 122.32-7.85L122.32-7.85L122.32-7.85Q120.37-6.90 118.31-5.62L118.31-5.62L118.31-5.62Q119.35-5.78 120.41-5.92L120.41-5.92L120.41-5.92Q121.48-6.05 122.51-6.15L122.51-6.15L122.51-6.15Q123.55-6.24 124.51-6.29L124.51-6.29L124.51-6.29Q125.47-6.35 126.29-6.35L126.29-6.35L126.29-6.35Q127.45-6.35 128.35-6.22L128.35-6.22L128.35-6.22Q129.25-6.09 129.89-5.81L129.89-5.81L129.89-5.81Q130.53-5.53 130.94-5.08L130.94-5.08L130.94-5.08Q131.34-4.63 131.51-3.99L131.51-3.99L131.51-3.99Q131.71-3.25 132.03-2.72L132.03-2.72L132.03-2.72Q132.35-2.19 132.71-1.84L132.71-1.84L132.71-1.84Q133.07-1.49 133.43-1.32L133.43-1.32L133.43-1.32Q133.80-1.15 134.07-1.11L134.07-1.11L134.07 0.07L134.07 0.07Q133.78 0.16 133.10 0.25L133.10 0.25L133.10 0.25Q132.43 0.35 131.48 0.44L131.48 0.44L131.48 0.44Q130.53 0.53 129.36 0.58L129.36 0.58L129.36 0.58Q128.20 0.64 126.92 0.64L126.92 0.64L126.92 0.64Q125.58 0.64 124.64 0.58L124.64 0.58L124.64 0.58Q123.69 0.52 123.04 0.37L123.04 0.37L123.04 0.37Q122.38 0.22 121.97-0.01L121.97-0.01L121.97-0.01Q121.57-0.25 121.32-0.61L121.32-0.61L121.32-0.61Q121.08-0.97 120.94-1.45L120.94-1.45L120.94-1.45Q120.81-1.93 120.69-2.56L120.69-2.56L120.69-2.56Q120.60-3.02 120.49-3.44L120.49-3.44L120.49-3.44Q120.37-3.86 120.05-4.19L120.05-4.19L120.05-4.19Q119.73-4.51 119.14-4.71L119.14-4.71L119.14-4.71Q118.55-4.91 117.54-4.92L117.54-4.92L117.54-4.92Q117.55-3.91 117.64-3.18L117.64-3.18L117.64-3.18Q117.74-2.45 117.96-1.98L117.96-1.98L117.96-1.98Q118.18-1.50 118.54-1.28L118.54-1.28L118.54-1.28Q118.91-1.06 119.47-1.06L119.47-1.06L119.47 0L102.47 0Z" fill="url(#editing-shadow-gradient1)"></path></g></g></g></g><g><g transform="translate(-67.18537044525146, 9.84000015258789)"><path d="M1.29-7.32L1.29-7.32L1.29-7.32Q1.29-9.09 2.25-10.52L2.25-10.52L2.25-10.52Q3.21-11.96 4.98-12.98L4.98-12.98L4.98-12.98Q6.75-14.00 9.25-14.56L9.25-14.56L9.25-14.56Q11.76-15.12 14.85-15.12L14.85-15.12L14.85-15.12Q16.50-15.12 17.97-14.98L17.97-14.98L17.97-14.98Q19.44-14.85 20.71-14.69L20.71-14.69L20.71-14.69Q21.98-14.53 23.04-14.40L23.04-14.40L23.04-14.40Q24.10-14.26 24.95-14.26L24.95-14.26L24.95-14.26Q25.16-14.26 25.41-14.33L25.41-14.33L25.41-14.33Q25.66-14.40 25.91-14.52L25.91-14.52L25.91-14.52Q26.16-14.63 26.37-14.80L26.37-14.80L26.37-14.80Q26.58-14.97 26.71-15.18L26.71-15.18L29.18-15.18L29.18-15.18Q29.51-14.60 29.79-13.79L29.79-13.79L29.79-13.79Q30.08-12.97 30.27-12.10L30.27-12.10L30.27-12.10Q30.47-11.22 30.58-10.36L30.58-10.36L30.58-10.36Q30.69-9.50 30.69-8.83L30.69-8.83L29.01-8.83L29.01-8.83Q28.79-9.60 28.34-10.24L28.34-10.24L28.34-10.24Q27.89-10.87 27.26-11.37L27.26-11.37L27.26-11.37Q26.63-11.86 25.88-12.23L25.88-12.23L25.88-12.23Q25.12-12.60 24.32-12.84L24.32-12.84L24.32-12.84Q23.52-13.07 22.71-13.19L22.71-13.19L22.71-13.19Q21.90-13.31 21.17-13.31L21.17-13.31L21.17-13.31Q19.95-13.31 18.83-12.99L18.83-12.99L18.83-12.99Q17.71-12.68 16.86-11.95L16.86-11.95L16.86-11.95Q16.00-11.22 15.49-10.02L15.49-10.02L15.49-10.02Q14.98-8.83 14.98-7.06L14.98-7.06L14.98-7.06Q14.98-5.57 15.54-4.46L15.54-4.46L15.54-4.46Q16.09-3.35 17.02-2.61L17.02-2.61L17.02-2.61Q17.95-1.88 19.15-1.51L19.15-1.51L19.15-1.51Q20.35-1.15 21.65-1.15L21.65-1.15L21.65-1.15Q22.45-1.15 23.29-1.28L23.29-1.28L23.29-1.28Q24.13-1.42 24.94-1.68L24.94-1.68L24.94-1.68Q25.74-1.95 26.46-2.36L26.46-2.36L26.46-2.36Q27.19-2.77 27.75-3.34L27.75-3.34L27.75-3.34Q28.31-3.90 28.68-4.61L28.68-4.61L28.68-4.61Q29.04-5.32 29.13-6.19L29.13-6.19L30.81-6.19L30.81-6.19Q30.81-4.62 29.99-3.35L29.99-3.35L29.99-3.35Q29.17-2.09 27.54-1.20L27.54-1.20L27.54-1.20Q25.92-0.31 23.51 0.16L23.51 0.16L23.51 0.16Q21.10 0.64 17.92 0.64L17.92 0.64L17.92 0.64Q15.44 0.64 13.25 0.48L13.25 0.48L13.25 0.48Q11.05 0.33 9.20-0.03L9.20-0.03L9.20-0.03Q7.36-0.39 5.89-0.99L5.89-0.99L5.89-0.99Q4.42-1.59 3.40-2.48L3.40-2.48L3.40-2.48Q2.38-3.36 1.84-4.56L1.84-4.56L1.84-4.56Q1.29-5.76 1.29-7.32ZM32.94 0L32.94-1.06L32.94-1.06Q33.95-1.09 34.70-1.21L34.70-1.21L34.70-1.21Q35.45-1.33 35.99-1.60L35.99-1.60L35.99-1.60Q36.53-1.88 36.88-2.34L36.88-2.34L36.88-2.34Q37.23-2.81 37.44-3.56L37.44-3.56L37.44-3.56Q37.64-4.31 37.72-5.38L37.72-5.38L37.72-5.38Q37.80-6.45 37.80-7.91L37.80-7.91L37.80-7.91Q37.80-9.33 37.69-10.39L37.69-10.39L37.69-10.39Q37.58-11.44 37.32-12.20L37.32-12.20L37.32-12.20Q37.07-12.95 36.67-13.43L36.67-13.43L36.67-13.43Q36.27-13.91 35.70-14.19L35.70-14.19L35.70-14.19Q35.12-14.46 34.35-14.57L34.35-14.57L34.35-14.57Q33.58-14.68 32.60-14.68L32.60-14.68L32.60-15.72L47.67-16.73L47.67-5.28L47.67-5.28Q47.67-4.18 47.88-3.40L47.88-3.40L47.88-3.40Q48.09-2.63 48.61-2.13L48.61-2.13L48.61-2.13Q49.12-1.63 50.00-1.37L50.00-1.37L50.00-1.37Q50.87-1.11 52.22-1.06L52.22-1.06L52.22 0L32.94 0ZM57.63-16.30L57.63-16.30L57.63-16.30Q57.63-16.87 58.09-17.37L58.09-17.37L58.09-17.37Q58.54-17.87 59.32-18.24L59.32-18.24L59.32-18.24Q60.11-18.61 61.16-18.82L61.16-18.82L61.16-18.82Q62.21-19.04 63.38-19.04L63.38-19.04L63.38-19.04Q64.58-19.04 65.63-18.82L65.63-18.82L65.63-18.82Q66.68-18.61 67.46-18.24L67.46-18.24L67.46-18.24Q68.25-17.87 68.70-17.37L68.70-17.37L68.70-17.37Q69.15-16.87 69.15-16.30L69.15-16.30L69.15-16.30Q69.15-15.73 68.70-15.24L68.70-15.24L68.70-15.24Q68.25-14.75 67.46-14.38L67.46-14.38L67.46-14.38Q66.68-14.00 65.63-13.79L65.63-13.79L65.63-13.79Q64.58-13.58 63.38-13.58L63.38-13.58L63.38-13.58Q62.21-13.58 61.16-13.79L61.16-13.79L61.16-13.79Q60.11-14.00 59.32-14.38L59.32-14.38L59.32-14.38Q58.54-14.75 58.09-15.24L58.09-15.24L58.09-15.24Q57.63-15.73 57.63-16.30ZM53.23 0L53.23-1.06L53.23-1.06Q54.78-1.11 55.84-1.45L55.84-1.45L55.84-1.45Q56.90-1.79 57.56-2.38L57.56-2.38L57.56-2.38Q58.22-2.98 58.51-3.83L58.51-3.83L58.51-3.83Q58.80-4.68 58.80-5.78L58.80-5.78L58.80-5.78Q58.80-6.91 58.51-7.71L58.51-7.71L58.51-7.71Q58.22-8.51 57.59-9.02L57.59-9.02L57.59-9.02Q56.96-9.53 55.98-9.77L55.98-9.77L55.98-9.77Q55.00-10.01 53.60-10.01L53.60-10.01L53.60-11.06L68.67-12.07L68.67-5.78L68.67-5.78Q68.67-4.68 68.87-3.83L68.87-3.83L68.87-3.83Q69.06-2.98 69.59-2.38L69.59-2.38L69.59-2.38Q70.12-1.79 71.07-1.45L71.07-1.45L71.07-1.45Q72.02-1.11 73.54-1.06L73.54-1.06L73.54 0L53.23 0ZM75.09-5.77L75.09-5.77L75.09-5.77Q75.09-6.95 75.64-7.89L75.64-7.89L75.64-7.89Q76.20-8.83 77.19-9.55L77.19-9.55L77.19-9.55Q78.19-10.28 79.56-10.79L79.56-10.79L79.56-10.79Q80.93-11.30 82.57-11.63L82.57-11.63L82.57-11.63Q84.21-11.96 86.05-12.11L86.05-12.11L86.05-12.11Q87.90-12.26 89.83-12.26L89.83-12.26L89.83-12.26Q91.16-12.26 92.44-12.16L92.44-12.16L92.44-12.16Q93.73-12.06 94.88-11.86L94.88-11.86L94.88-11.86Q96.02-11.67 96.99-11.38L96.99-11.38L96.99-11.38Q97.96-11.08 98.67-10.71L98.67-10.71L98.67-10.71Q99.38-10.34 99.78-9.89L99.78-9.89L99.78-9.89Q100.18-9.43 100.18-8.91L100.18-8.91L100.18-8.91Q100.18-8.36 99.84-7.84L99.84-7.84L99.84-7.84Q99.50-7.33 98.86-6.93L98.86-6.93L98.86-6.93Q98.22-6.54 97.28-6.29L97.28-6.29L97.28-6.29Q96.35-6.05 95.14-6.05L95.14-6.05L95.14-6.05Q94.01-6.05 93.02-6.23L93.02-6.23L93.02-6.23Q92.02-6.41 91.29-6.73L91.29-6.73L91.29-6.73Q90.56-7.04 90.14-7.47L90.14-7.47L90.14-7.47Q89.72-7.91 89.72-8.42L89.72-8.42L89.72-8.42Q89.72-8.86 90.01-9.28L90.01-9.28L90.01-9.28Q90.29-9.70 90.86-10.03L90.86-10.03L90.86-10.03Q91.43-10.37 92.27-10.57L92.27-10.57L92.27-10.57Q93.11-10.77 94.23-10.77L94.23-10.77L94.23-10.77Q93.59-10.95 92.90-11.03L92.90-11.03L92.90-11.03Q92.21-11.11 91.51-11.11L91.51-11.11L91.51-11.11Q90.48-11.11 89.52-10.88L89.52-10.88L89.52-10.88Q88.56-10.65 87.82-10.10L87.82-10.10L87.82-10.10Q87.07-9.56 86.62-8.65L86.62-8.65L86.62-8.65Q86.17-7.75 86.17-6.40L86.17-6.40L86.17-6.40Q86.17-5.53 86.42-4.81L86.42-4.81L86.42-4.81Q86.68-4.10 87.13-3.54L87.13-3.54L87.13-3.54Q87.58-2.98 88.19-2.56L88.19-2.56L88.19-2.56Q88.80-2.15 89.51-1.88L89.51-1.88L89.51-1.88Q90.23-1.61 91.02-1.47L91.02-1.47L91.02-1.47Q91.81-1.34 92.61-1.34L92.61-1.34L92.61-1.34Q93.90-1.34 95.10-1.56L95.10-1.56L95.10-1.56Q96.30-1.79 97.22-2.17L97.22-2.17L97.22-2.17Q98.14-2.56 98.69-3.07L98.69-3.07L98.69-3.07Q99.24-3.58 99.24-4.17L99.24-4.17L100.63-4.17L100.63-4.17Q100.63-3.38 100.23-2.73L100.23-2.73L100.23-2.73Q99.83-2.08 99.11-1.56L99.11-1.56L99.11-1.56Q98.39-1.04 97.40-0.66L97.40-0.66L97.40-0.66Q96.40-0.27 95.22-0.01L95.22-0.01L95.22-0.01Q94.03 0.25 92.69 0.38L92.69 0.38L92.69 0.38Q91.35 0.51 89.93 0.51L89.93 0.51L89.93 0.51Q87.90 0.51 86.01 0.38L86.01 0.38L86.01 0.38Q84.13 0.26 82.48-0.03L82.48-0.03L82.48-0.03Q80.83-0.31 79.47-0.79L79.47-0.79L79.47-0.79Q78.11-1.26 77.14-1.95L77.14-1.95L77.14-1.95Q76.17-2.65 75.63-3.59L75.63-3.59L75.63-3.59Q75.09-4.54 75.09-5.77ZM102.47 0L102.47-1.06L102.47-1.06Q103.48-1.09 104.25-1.22L104.25-1.22L104.25-1.22Q105.03-1.36 105.61-1.65L105.61-1.65L105.61-1.65Q106.18-1.94 106.58-2.43L106.58-2.43L106.58-2.43Q106.97-2.91 107.21-3.66L107.21-3.66L107.21-3.66Q107.45-4.40 107.56-5.45L107.56-5.45L107.56-5.45Q107.67-6.50 107.67-7.91L107.67-7.91L107.67-7.91Q107.67-10.04 107.37-11.37L107.37-11.37L107.37-11.37Q107.08-12.69 106.45-13.43L106.45-13.43L106.45-13.43Q105.82-14.16 104.84-14.42L104.84-14.42L104.84-14.42Q103.86-14.68 102.47-14.68L102.47-14.68L102.47-15.72L117.54-16.73L117.54-6.50L117.54-6.50Q118.36-7.08 119.11-7.70L119.11-7.70L119.11-7.70Q119.86-8.32 120.44-8.86L120.44-8.86L120.44-8.86Q121.01-9.40 121.35-9.80L121.35-9.80L121.35-9.80Q121.69-10.20 121.69-10.33L121.69-10.33L121.69-10.33Q121.69-10.56 121.21-10.62L121.21-10.62L121.21-10.62Q120.73-10.69 119.90-10.69L119.90-10.69L119.90-11.75L132.38-11.75L132.38-10.69L132.38-10.69Q131.05-10.69 129.45-10.38L129.45-10.38L129.45-10.38Q127.86-10.06 126.07-9.43L126.07-9.43L126.07-9.43Q124.28-8.80 122.32-7.85L122.32-7.85L122.32-7.85Q120.37-6.90 118.31-5.62L118.31-5.62L118.31-5.62Q119.35-5.78 120.41-5.92L120.41-5.92L120.41-5.92Q121.48-6.05 122.51-6.15L122.51-6.15L122.51-6.15Q123.55-6.24 124.51-6.29L124.51-6.29L124.51-6.29Q125.47-6.35 126.29-6.35L126.29-6.35L126.29-6.35Q127.45-6.35 128.35-6.22L128.35-6.22L128.35-6.22Q129.25-6.09 129.89-5.81L129.89-5.81L129.89-5.81Q130.53-5.53 130.94-5.08L130.94-5.08L130.94-5.08Q131.34-4.63 131.51-3.99L131.51-3.99L131.51-3.99Q131.71-3.25 132.03-2.72L132.03-2.72L132.03-2.72Q132.35-2.19 132.71-1.84L132.71-1.84L132.71-1.84Q133.07-1.49 133.43-1.32L133.43-1.32L133.43-1.32Q133.80-1.15 134.07-1.11L134.07-1.11L134.07 0.07L134.07 0.07Q133.78 0.16 133.10 0.25L133.10 0.25L133.10 0.25Q132.43 0.35 131.48 0.44L131.48 0.44L131.48 0.44Q130.53 0.53 129.36 0.58L129.36 0.58L129.36 0.58Q128.20 0.64 126.92 0.64L126.92 0.64L126.92 0.64Q125.58 0.64 124.64 0.58L124.64 0.58L124.64 0.58Q123.69 0.52 123.04 0.37L123.04 0.37L123.04 0.37Q122.38 0.22 121.97-0.01L121.97-0.01L121.97-0.01Q121.57-0.25 121.32-0.61L121.32-0.61L121.32-0.61Q121.08-0.97 120.94-1.45L120.94-1.45L120.94-1.45Q120.81-1.93 120.69-2.56L120.69-2.56L120.69-2.56Q120.60-3.02 120.49-3.44L120.49-3.44L120.49-3.44Q120.37-3.86 120.05-4.19L120.05-4.19L120.05-4.19Q119.73-4.51 119.14-4.71L119.14-4.71L119.14-4.71Q118.55-4.91 117.54-4.92L117.54-4.92L117.54-4.92Q117.55-3.91 117.64-3.18L117.64-3.18L117.64-3.18Q117.74-2.45 117.96-1.98L117.96-1.98L117.96-1.98Q118.18-1.50 118.54-1.28L118.54-1.28L118.54-1.28Q118.91-1.06 119.47-1.06L119.47-1.06L119.47 0L102.47 0Z" fill="url(#editing-shadow-gradient2)"></path></g></g></g><style>
  font-size: 64px;
  font-family: Arial Black;
  dominant-baseline: central;
  text-anchor: middle;
</style></svg>